<?xml version="1.0" encoding="UTF-8" standalone="no"?>
<!DOCTYPE svg PUBLIC "-//W3C//DTD SVG 1.1//EN"
 "http://www.w3.org/Graphics/SVG/1.1/DTD/svg11.dtd">
<!-- Generated by graphviz version 5.0.0 (0)
 -->
<!-- Pages: 1 -->
<svg width="576pt" height="127pt"
 viewBox="0.00 0.00 576.00 127.00" xmlns="http://www.w3.org/2000/svg" xmlns:xlink="http://www.w3.org/1999/xlink">
<g id="graph0" class="graph" transform="scale(1 1) rotate(0) translate(4 123)">
<polygon fill="white" stroke="transparent" points="-4,4 -4,-123 572,-123 572,4 -4,4"/>
<!-- 140246101638736 -->
<g id="node1" class="node">
<title>140246101638736</title>
<polygon fill="none" stroke="black" points="458,-54.5 458,-90.5 568,-90.5 568,-54.5 458,-54.5"/>
<text text-anchor="middle" x="469.5" y="-68.8" font-family="Times,serif" font-size="14.00">_</text>
<polyline fill="none" stroke="black" points="481,-54.5 481,-90.5 "/>
<text text-anchor="middle" x="524.5" y="-68.8" font-family="Times,serif" font-size="14.00">data 20.0000</text>
</g>
<!-- 140246101638736* -->
<g id="node2" class="node">
<title>140246101638736*</title>
<ellipse fill="none" stroke="black" cx="395" cy="-72.5" rx="27" ry="18"/>
<text text-anchor="middle" x="395" y="-68.8" font-family="Times,serif" font-size="14.00">*</text>
</g>
<!-- 140246101638736*&#45;&gt;140246101638736 -->
<g id="edge1" class="edge">
<title>140246101638736*&#45;&gt;140246101638736</title>
<path fill="none" stroke="black" d="M422.03,-72.5C429.7,-72.5 438.45,-72.5 447.42,-72.5"/>
<polygon fill="black" stroke="black" points="447.58,-76 457.58,-72.5 447.58,-69 447.58,-76"/>
</g>
<!-- 140246101635184 -->
<g id="node3" class="node">
<title>140246101635184</title>
<polygon fill="none" stroke="black" points="0,-55.5 0,-91.5 103,-91.5 103,-55.5 0,-55.5"/>
<text text-anchor="middle" x="11.5" y="-69.8" font-family="Times,serif" font-size="14.00">x</text>
<polyline fill="none" stroke="black" points="23,-55.5 23,-91.5 "/>
<text text-anchor="middle" x="63" y="-69.8" font-family="Times,serif" font-size="14.00">data 2.0000</text>
</g>
<!-- 140246101632208+ -->
<g id="node6" class="node">
<title>140246101632208+</title>
<ellipse fill="none" stroke="black" cx="166" cy="-45.5" rx="27" ry="18"/>
<text text-anchor="middle" x="166" y="-41.8" font-family="Times,serif" font-size="14.00">+</text>
</g>
<!-- 140246101635184&#45;&gt;140246101632208+ -->
<g id="edge4" class="edge">
<title>140246101635184&#45;&gt;140246101632208+</title>
<path fill="none" stroke="black" d="M103.16,-60.89C112.46,-58.58 121.97,-56.21 130.66,-54.05"/>
<polygon fill="black" stroke="black" points="131.56,-57.43 140.41,-51.62 129.87,-50.64 131.56,-57.43"/>
</g>
<!-- 140246101631632 -->
<g id="node4" class="node">
<title>140246101631632</title>
<polygon fill="none" stroke="black" points="229,-82.5 229,-118.5 332,-118.5 332,-82.5 229,-82.5"/>
<text text-anchor="middle" x="240.5" y="-96.8" font-family="Times,serif" font-size="14.00">z</text>
<polyline fill="none" stroke="black" points="252,-82.5 252,-118.5 "/>
<text text-anchor="middle" x="292" y="-96.8" font-family="Times,serif" font-size="14.00">data 4.0000</text>
</g>
<!-- 140246101631632&#45;&gt;140246101638736* -->
<g id="edge3" class="edge">
<title>140246101631632&#45;&gt;140246101638736*</title>
<path fill="none" stroke="black" d="M332.16,-87.89C341.46,-85.58 350.97,-83.21 359.66,-81.05"/>
<polygon fill="black" stroke="black" points="360.56,-84.43 369.41,-78.62 358.87,-77.64 360.56,-84.43"/>
</g>
<!-- 140246101632208 -->
<g id="node5" class="node">
<title>140246101632208</title>
<polygon fill="none" stroke="black" points="229,-27.5 229,-63.5 332,-63.5 332,-27.5 229,-27.5"/>
<text text-anchor="middle" x="240.5" y="-41.8" font-family="Times,serif" font-size="14.00">_</text>
<polyline fill="none" stroke="black" points="252,-27.5 252,-63.5 "/>
<text text-anchor="middle" x="292" y="-41.8" font-family="Times,serif" font-size="14.00">data 5.0000</text>
</g>
<!-- 140246101632208&#45;&gt;140246101638736* -->
<g id="edge5" class="edge">
<title>140246101632208&#45;&gt;140246101638736*</title>
<path fill="none" stroke="black" d="M332.16,-57.66C341.46,-59.89 350.97,-62.17 359.66,-64.26"/>
<polygon fill="black" stroke="black" points="358.87,-67.67 369.41,-66.6 360.51,-60.86 358.87,-67.67"/>
</g>
<!-- 140246101632208+&#45;&gt;140246101632208 -->
<g id="edge2" class="edge">
<title>140246101632208+&#45;&gt;140246101632208</title>
<path fill="none" stroke="black" d="M193.09,-45.5C200.83,-45.5 209.64,-45.5 218.61,-45.5"/>
<polygon fill="black" stroke="black" points="218.76,-49 228.76,-45.5 218.76,-42 218.76,-49"/>
</g>
<!-- 140246101631440 -->
<g id="node7" class="node">
<title>140246101631440</title>
<polygon fill="none" stroke="black" points="0,-0.5 0,-36.5 103,-36.5 103,-0.5 0,-0.5"/>
<text text-anchor="middle" x="11.5" y="-14.8" font-family="Times,serif" font-size="14.00">y</text>
<polyline fill="none" stroke="black" points="23,-0.5 23,-36.5 "/>
<text text-anchor="middle" x="63" y="-14.8" font-family="Times,serif" font-size="14.00">data 3.0000</text>
</g>
<!-- 140246101631440&#45;&gt;140246101632208+ -->
<g id="edge6" class="edge">
<title>140246101631440&#45;&gt;140246101632208+</title>
<path fill="none" stroke="black" d="M103.16,-30.66C112.46,-32.89 121.97,-35.17 130.66,-37.26"/>
<polygon fill="black" stroke="black" points="129.87,-40.67 140.41,-39.6 131.51,-33.86 129.87,-40.67"/>
</g>
</g>
</svg>
