<?xml version="1.0" encoding="UTF-8" standalone="no"?>
<!DOCTYPE svg PUBLIC "-//W3C//DTD SVG 1.1//EN"
 "http://www.w3.org/Graphics/SVG/1.1/DTD/svg11.dtd">
<!-- Generated by graphviz version 5.0.0 (0)
 -->
<!-- Pages: 1 -->
<svg width="325pt" height="221pt"
 viewBox="0.00 0.00 325.00 221.00" xmlns="http://www.w3.org/2000/svg" xmlns:xlink="http://www.w3.org/1999/xlink">
<g id="graph0" class="graph" transform="scale(1 1) rotate(0) translate(4 217)">
<polygon fill="white" stroke="transparent" points="-4,4 -4,-217 321,-217 321,4 -4,4"/>
<!-- 139744027931120 -->
<g id="node1" class="node">
<title>139744027931120</title>
<polygon fill="none" stroke="black" points="131,-0.5 131,-46.5 253,-46.5 253,-0.5 131,-0.5"/>
<text text-anchor="middle" x="192" y="-31.3" font-family="Times,serif" font-size="14.00">__mul__</text>
<polyline fill="none" stroke="black" points="131,-23.5 253,-23.5 "/>
<text text-anchor="middle" x="192" y="-8.3" font-family="Times,serif" font-size="14.00">v=20.00 grad=1.00</text>
</g>
<!-- 139744027932176 -->
<g id="node2" class="node">
<title>139744027932176</title>
<polygon fill="none" stroke="black" points="67,-83.5 67,-129.5 183,-129.5 183,-83.5 67,-83.5"/>
<text text-anchor="middle" x="125" y="-114.3" font-family="Times,serif" font-size="14.00">__add__</text>
<polyline fill="none" stroke="black" points="67,-106.5 183,-106.5 "/>
<text text-anchor="middle" x="125" y="-91.3" font-family="Times,serif" font-size="14.00">v=5.00 grad=4.00</text>
</g>
<!-- 139744027932176&#45;&gt;139744027931120 -->
<g id="edge3" class="edge">
<title>139744027932176&#45;&gt;139744027931120</title>
<path fill="none" stroke="black" d="M143.31,-83.37C150.69,-74.44 159.33,-64 167.26,-54.41"/>
<polygon fill="black" stroke="black" points="170.04,-56.54 173.71,-46.61 164.64,-52.08 170.04,-56.54"/>
</g>
<!-- 139744027932032 -->
<g id="node3" class="node">
<title>139744027932032</title>
<polygon fill="none" stroke="black" points="0,-166.5 0,-212.5 116,-212.5 116,-166.5 0,-166.5"/>
<text text-anchor="middle" x="58" y="-197.3" font-family="Times,serif" font-size="14.00">x</text>
<polyline fill="none" stroke="black" points="0,-189.5 116,-189.5 "/>
<text text-anchor="middle" x="58" y="-174.3" font-family="Times,serif" font-size="14.00">v=2.00 grad=4.00</text>
</g>
<!-- 139744027932032&#45;&gt;139744027932176 -->
<g id="edge1" class="edge">
<title>139744027932032&#45;&gt;139744027932176</title>
<path fill="none" stroke="black" d="M76.31,-166.37C83.69,-157.44 92.33,-147 100.26,-137.41"/>
<polygon fill="black" stroke="black" points="103.04,-139.54 106.71,-129.61 97.64,-135.08 103.04,-139.54"/>
</g>
<!-- 139744027929200 -->
<g id="node4" class="node">
<title>139744027929200</title>
<polygon fill="none" stroke="black" points="134,-166.5 134,-212.5 250,-212.5 250,-166.5 134,-166.5"/>
<text text-anchor="middle" x="192" y="-197.3" font-family="Times,serif" font-size="14.00">y</text>
<polyline fill="none" stroke="black" points="134,-189.5 250,-189.5 "/>
<text text-anchor="middle" x="192" y="-174.3" font-family="Times,serif" font-size="14.00">v=3.00 grad=4.00</text>
</g>
<!-- 139744027929200&#45;&gt;139744027932176 -->
<g id="edge2" class="edge">
<title>139744027929200&#45;&gt;139744027932176</title>
<path fill="none" stroke="black" d="M173.69,-166.37C166.31,-157.44 157.67,-147 149.74,-137.41"/>
<polygon fill="black" stroke="black" points="152.36,-135.08 143.29,-129.61 146.96,-139.54 152.36,-135.08"/>
</g>
<!-- 139744027931024 -->
<g id="node5" class="node">
<title>139744027931024</title>
<polygon fill="none" stroke="black" points="201,-83.5 201,-129.5 317,-129.5 317,-83.5 201,-83.5"/>
<text text-anchor="middle" x="259" y="-114.3" font-family="Times,serif" font-size="14.00">z</text>
<polyline fill="none" stroke="black" points="201,-106.5 317,-106.5 "/>
<text text-anchor="middle" x="259" y="-91.3" font-family="Times,serif" font-size="14.00">v=4.00 grad=5.00</text>
</g>
<!-- 139744027931024&#45;&gt;139744027931120 -->
<g id="edge4" class="edge">
<title>139744027931024&#45;&gt;139744027931120</title>
<path fill="none" stroke="black" d="M240.69,-83.37C233.31,-74.44 224.67,-64 216.74,-54.41"/>
<polygon fill="black" stroke="black" points="219.36,-52.08 210.29,-46.61 213.96,-56.54 219.36,-52.08"/>
</g>
</g>
</svg>
